<svg width="50" height="50" viewBox="0 0 50 50" fill="none" xmlns="http://www.w3.org/2000/svg">
<rect width="50" height="50" rx="10" fill="#ECEFF7"/>
<path opacity="0.3" fill-rule="evenodd" clip-rule="evenodd" d="M16.8766 16.7457C16.3432 16.6027 15.7948 16.9193 15.6519 17.4528L13.0637 27.112C12.9208 27.6455 13.2373 28.1938 13.7708 28.3368L32.1234 33.2543C32.6569 33.3973 33.2052 33.0807 33.3481 32.5472L35.9363 22.888C36.0793 22.3545 35.7627 21.8062 35.2292 21.6632L16.8766 16.7457ZM28.3637 26.0353C27.7919 28.1691 25.5986 29.4355 23.4647 28.8637C21.3309 28.2919 20.0645 26.0986 20.6363 23.9647C21.2081 21.8309 23.4014 20.5645 25.5353 21.1363C27.6692 21.7081 28.9355 23.9014 28.3637 26.0353Z" fill="#565656"/>
<path fill-rule="evenodd" clip-rule="evenodd" d="M15 19C14.4477 19 14 19.4477 14 20V30C14 30.5523 14.4477 31 15 31H34C34.5523 31 35 30.5523 35 30V20C35 19.4477 34.5523 19 34 19H15ZM28.5 25C28.5 27.2091 26.7091 29 24.5 29C22.2909 29 20.5 27.2091 20.5 25C20.5 22.7909 22.2909 21 24.5 21C26.7091 21 28.5 22.7909 28.5 25ZM24.5 27C25.6046 27 26.5 26.1046 26.5 25C26.5 23.8954 25.6046 23 24.5 23C23.3954 23 22.5 23.8954 22.5 25C22.5 26.1046 23.3954 27 24.5 27Z" fill="#565656"/>
</svg>
