<svg width="50" height="50" viewBox="0 0 50 50" fill="none" xmlns="http://www.w3.org/2000/svg">
<rect width="50" height="50" rx="10" fill="#ECEFF7"/>
<path opacity="0.3" d="M20 18C20 17.4477 20.4477 17 21 17H34C34.5523 17 35 17.4477 35 18V29C35 31.2091 33.2091 33 31 33H24C21.7909 33 20 31.2091 20 29V18Z" fill="#565656"/>
<path d="M20 20V22H18C17.4477 22 17 22.4477 17 23V25C17 25.5523 17.4477 26 18 26H20V28H18C16.3431 28 15 26.6569 15 25V23C15 21.3431 16.3431 20 18 20H20Z" fill="#565656"/>
<rect opacity="0.3" x="31" y="20" width="2" height="8" rx="1" fill="#565656"/>
</svg>
