<svg width="50" height="50" viewBox="0 0 50 50" fill="none" xmlns="http://www.w3.org/2000/svg">
<rect width="50" height="50" rx="10" fill="#ECEFF7"/>
<path opacity="0.3" d="M25 17.562L20.7682 22.6402C20.4147 23.0645 19.7841 23.1218 19.3598 22.7682C18.9356 22.4147 18.8782 21.7841 19.2318 21.3598L24.2318 15.3598C24.6316 14.8801 25.3685 14.8801 25.7682 15.3598L30.7682 21.3598C31.1218 21.7841 31.0645 22.4147 30.6402 22.7682C30.2159 23.1218 29.5854 23.0645 29.2318 22.6402L25 17.562Z" fill="#565656"/>
<path fill-rule="evenodd" clip-rule="evenodd" d="M16.2805 22C15.7282 22 15.2805 22.4477 15.2805 23V31C15.2805 32.6569 16.6237 34 18.2805 34H31.7192C33.3761 34 34.7192 32.6569 34.7192 31V23C34.7192 22.4477 34.2715 22 33.7192 22H16.2805ZM25 25C24.4477 25 24 25.4477 24 26V30C24 30.5523 24.4477 31 25 31C25.5523 31 26 30.5523 26 30V26C26 25.4477 25.5523 25 25 25ZM19.2576 26.361C19.1147 25.8276 19.4312 25.2792 19.9647 25.1363C20.4982 24.9934 21.0465 25.3099 21.1894 25.8434L22.2247 29.7071C22.3677 30.2406 22.0511 30.7889 21.5176 30.9319C20.9841 31.0748 20.4358 30.7582 20.2929 30.2247L19.2576 26.361ZM30.0353 25.1363C29.5018 24.9934 28.9535 25.3099 28.8105 25.8434L27.7752 29.7071C27.6323 30.2406 27.9489 30.7889 28.4823 30.9319C29.0158 31.0748 29.5641 30.7582 29.7071 30.2247L30.7424 26.361C30.8853 25.8276 30.5687 25.2792 30.0353 25.1363Z" fill="#565656"/>
</svg>
