<svg width="50" height="50" viewBox="0 0 50 50" fill="none" xmlns="http://www.w3.org/2000/svg">
<rect width="50" height="50" rx="10" fill="#ECEFF7"/>
<rect opacity="0.3" x="20" y="17" width="10" height="4" fill="#565656"/>
<path fill-rule="evenodd" clip-rule="evenodd" d="M20 15C18.8954 15 18 15.8954 18 17V33C18 34.1046 18.8954 35 20 35H30C31.1046 35 32 34.1046 32 33V17C32 15.8954 31.1046 15 30 15H20ZM22 24C22 24.5523 21.5523 25 21 25C20.4477 25 20 24.5523 20 24C20 23.4477 20.4477 23 21 23C21.5523 23 22 23.4477 22 24ZM21 29C21.5523 29 22 28.5523 22 28C22 27.4477 21.5523 27 21 27C20.4477 27 20 27.4477 20 28C20 28.5523 20.4477 29 21 29ZM26 24C26 24.5523 25.5523 25 25 25C24.4477 25 24 24.5523 24 24C24 23.4477 24.4477 23 25 23C25.5523 23 26 23.4477 26 24ZM25 29C25.5523 29 26 28.5523 26 28C26 27.4477 25.5523 27 25 27C24.4477 27 24 27.4477 24 28C24 28.5523 24.4477 29 25 29ZM30 24C30 24.5523 29.5523 25 29 25C28.4477 25 28 24.5523 28 24C28 23.4477 28.4477 23 29 23C29.5523 23 30 23.4477 30 24ZM29 29C29.5523 29 30 28.5523 30 28C30 27.4477 29.5523 27 29 27C28.4477 27 28 27.4477 28 28C28 28.5523 28.4477 29 29 29ZM30 32C30 32.5523 29.5523 33 29 33C28.4477 33 28 32.5523 28 32C28 31.4477 28.4477 31 29 31C29.5523 31 30 31.4477 30 32ZM20 32C20 31.4477 20.4477 31 21 31H25C25.5523 31 26 31.4477 26 32C26 32.5523 25.5523 33 25 33H21C20.4477 33 20 32.5523 20 32ZM30 17H20V21H30V17Z" fill="#565656"/>
</svg>
