<svg width="90" height="90" viewBox="0 0 90 90" fill="none" xmlns="http://www.w3.org/2000/svg">
<g filter="url(#filter0_d_0_292)">
<rect x="20" y="10" width="50" height="50" rx="10" fill="#51459E"/>
</g>
<rect x="37" y="27" width="7" height="7" rx="1.5" fill="white"/>
<path opacity="0.3" fill-rule="evenodd" clip-rule="evenodd" d="M46 28.5C46 27.6716 46.6716 27 47.5 27H51.5C52.3284 27 53 27.6716 53 28.5V32.5C53 33.3284 52.3284 34 51.5 34H47.5C46.6716 34 46 33.3284 46 32.5V28.5ZM37 37.5C37 36.6716 37.6716 36 38.5 36H42.5C43.3284 36 44 36.6716 44 37.5V41.5C44 42.3284 43.3284 43 42.5 43H38.5C37.6716 43 37 42.3284 37 41.5V37.5ZM47.5 36C46.6716 36 46 36.6716 46 37.5V41.5C46 42.3284 46.6716 43 47.5 43H51.5C52.3284 43 53 42.3284 53 41.5V37.5C53 36.6716 52.3284 36 51.5 36H47.5Z" fill="white"/>
<defs>
<filter id="filter0_d_0_292" x="0" y="0" width="90" height="90" filterUnits="userSpaceOnUse" color-interpolation-filters="sRGB">
<feFlood flood-opacity="0" result="BackgroundImageFix"/>
<feColorMatrix in="SourceAlpha" type="matrix" values="0 0 0 0 0 0 0 0 0 0 0 0 0 0 0 0 0 0 127 0" result="hardAlpha"/>
<feOffset dy="10"/>
<feGaussianBlur stdDeviation="10"/>
<feColorMatrix type="matrix" values="0 0 0 0 0.345098 0 0 0 0 0.360784 0 0 0 0 0.898039 0 0 0 0.25 0"/>
<feBlend mode="normal" in2="BackgroundImageFix" result="effect1_dropShadow_0_292"/>
<feBlend mode="normal" in="SourceGraphic" in2="effect1_dropShadow_0_292" result="shape"/>
</filter>
</defs>
</svg>
