<svg width="50" height="50" viewBox="0 0 50 50" fill="none" xmlns="http://www.w3.org/2000/svg">
<rect width="50" height="50" rx="10" fill="#ECEFF7"/>
<path opacity="0.3" fill-rule="evenodd" clip-rule="evenodd" d="M28.7843 27H33V15C29.6863 15 27 17.6863 27 21V25.1716L20.8284 19C19.2663 20.5621 19.2663 23.0948 20.8284 24.6569L25.9779 29.8063L28.7843 27Z" fill="#565656"/>
<path fill-rule="evenodd" clip-rule="evenodd" d="M18.5 25C16.0147 25 14 27.0147 14 29.5C14 31.9853 16.0147 34 18.5 34H31.5C33.9853 34 36 31.9853 36 29.5C36 27.0147 33.9853 25 31.5 25H18.5ZM34 29.5C34 30.3284 33.3284 31 32.5 31C31.6716 31 31 30.3284 31 29.5C31 28.6716 31.6716 28 32.5 28C33.3284 28 34 28.6716 34 29.5Z" fill="#565656"/>
</svg>
