<svg width="50" height="50" viewBox="0 0 50 50" fill="none" xmlns="http://www.w3.org/2000/svg">
<rect width="50" height="50" rx="10" fill="#ECEFF7"/>
<path opacity="0.3" d="M25 24C22.7909 24 21 22.2091 21 20C21 17.7909 22.7909 16 25 16C27.2091 16 29 17.7909 29 20C29 22.2091 27.2091 24 25 24Z" fill="#565656"/>
<path d="M16.0007 33.1992C16.3883 28.4265 20.2619 26 24.9833 26C29.7712 26 33.7049 28.2932 33.9979 33.2C34.0096 33.3955 33.9979 34 33.2467 34C29.5411 34 24.0347 34 16.7275 34C16.4767 34 15.9795 33.4592 16.0007 33.1992Z" fill="#565656"/>
</svg>
