<svg width="50" height="50" viewBox="0 0 50 50" fill="none" xmlns="http://www.w3.org/2000/svg">
<rect width="50" height="50" rx="10" fill="#ECEFF7"/>
<path fill-rule="evenodd" clip-rule="evenodd" d="M28 19H22C20.3431 19 19 20.3431 19 22V28C19 29.6569 20.3431 31 22 31H28C29.6569 31 31 29.6569 31 28V22C31 20.3431 29.6569 19 28 19ZM21 22C21 21.4477 21.4477 21 22 21H28C28.5523 21 29 21.4477 29 22V28C29 28.5523 28.5523 29 28 29H22C21.4477 29 21 28.5523 21 28V22Z" fill="#565656"/>
<path opacity="0.3" fill-rule="evenodd" clip-rule="evenodd" d="M22 21C21.4477 21 21 21.4477 21 22V28C21 28.5523 21.4477 29 22 29H28C28.5523 29 29 28.5523 29 28V22C29 21.4477 28.5523 21 28 21H22Z" fill="#565656"/>
<path opacity="0.3" d="M22 31H28V33.5C28 34.3284 27.3284 35 26.5 35H23.5C22.6716 35 22 34.3284 22 33.5V31Z" fill="#565656"/>
<path opacity="0.3" d="M22 16.5C22 15.6716 22.6716 15 23.5 15H26.5C27.3284 15 28 15.6716 28 16.5V19H22V16.5Z" fill="#565656"/>
</svg>
