<svg width="68" height="94" viewBox="0 0 68 94" fill="none" xmlns="http://www.w3.org/2000/svg">
<path opacity="0.7" d="M65.3212 49.3145C63.135 46.4906 59.8358 44.551 55.4241 43.4967C61.0422 40.6343 63.5111 35.7759 62.8333 28.921C62.6067 26.4352 61.9189 24.2809 60.7684 22.4548C59.6172 20.6284 58.0636 19.16 56.1017 18.0492C54.1415 16.937 52.0095 16.0904 49.7107 15.5067C47.4113 14.923 44.7714 14.4992 41.7928 14.2358V0L33.0841 0V13.8403C31.5761 13.8403 29.2763 13.8779 26.185 13.9533V0L17.4752 0V14.2358C16.2306 14.2736 14.4022 14.2928 11.9894 14.2928L0 14.2358L0 23.5005H6.27715C9.14266 23.5005 10.8204 24.7813 11.3105 27.3419V43.5551C11.6881 43.5551 11.9894 43.5745 12.2158 43.6121H11.3105L11.3105 66.3206C11.0092 68.2409 9.91599 69.2019 8.03061 69.2019H1.75385L0.000395954 79.54H11.3115C12.028 79.54 13.0642 79.5495 14.422 79.5665C15.7791 79.5855 16.7967 79.595 17.4755 79.595V94H26.1868V79.7644C27.7699 79.803 30.0697 79.8214 33.0859 79.8214V94H41.7948V79.595C44.8871 79.4446 47.6298 79.1637 50.0229 78.748C52.4171 78.3323 54.7082 77.6837 56.8945 76.798C59.0805 75.9136 60.9089 74.8113 62.3791 73.4931C63.8501 72.1761 65.0649 70.4995 66.028 68.4654C66.9879 66.4314 67.6014 64.0776 67.8645 61.4031C68.3567 56.1697 67.5079 52.1396 65.3212 49.3145ZM26.3544 24.1203C26.6184 24.1203 27.363 24.1108 28.5884 24.0918C29.8143 24.0724 30.8319 24.0538 31.6425 24.0348C32.4532 24.0162 33.5467 24.0633 34.9234 24.1762C36.2995 24.2892 37.4587 24.4402 38.401 24.6282C39.3433 24.8161 40.381 25.127 41.5111 25.5601C42.6432 25.9928 43.5474 26.5203 44.2253 27.1416C44.9045 27.7629 45.4794 28.5542 45.9498 29.5146C46.4217 30.4748 46.6574 31.5763 46.6574 32.8189C46.6574 33.8735 46.488 34.8341 46.1491 35.7008C45.8108 36.5668 45.3005 37.292 44.6226 37.8757C43.9446 38.4596 43.2457 38.9685 42.5293 39.4012C41.8136 39.8339 40.8984 40.1825 39.7866 40.4459C38.6749 40.7097 37.7041 40.9168 36.8751 41.0672C36.0455 41.218 35.0089 41.3218 33.7646 41.378C32.52 41.4342 31.5771 41.4726 30.9365 41.4912C30.2953 41.5098 29.4189 41.5098 28.3063 41.4912C27.1935 41.4726 26.5439 41.4627 26.3549 41.4627V24.1201H26.3544V24.1203ZM50.1366 62.5901C49.7774 63.4567 49.3163 64.2104 48.7511 64.8511C48.185 65.4902 47.44 66.0557 46.5167 66.5446C45.5937 67.0349 44.6973 67.4296 43.8309 67.731C42.9633 68.0335 41.9166 68.2957 40.6924 68.5224C39.4655 68.7486 38.3916 68.9077 37.467 69.0024C36.5437 69.0968 35.4414 69.1718 34.1589 69.2288C32.8775 69.2842 31.8778 69.3129 31.1617 69.3129C30.4452 69.3129 29.5402 69.3026 28.4467 69.2842C27.3527 69.2666 26.6558 69.2571 26.354 69.2571V50.1623C26.6552 50.1623 27.5508 50.1439 29.0404 50.1056C30.5302 50.0676 31.7455 50.05 32.6882 50.05C33.6306 50.05 34.9319 50.1056 36.5914 50.2193C38.2494 50.3315 39.6445 50.5003 40.7766 50.7262C41.9073 50.9526 43.1412 51.3004 44.4806 51.7718C45.8187 52.2423 46.9032 52.8165 47.733 53.4943C48.5626 54.1734 49.2596 55.0383 49.825 56.0931C50.3917 57.1473 50.6744 58.3527 50.6744 59.7088C50.6742 60.7644 50.4953 61.7233 50.1366 62.5901Z" fill="white"/>
</svg>
