<svg width="19" height="19" viewBox="0 0 19 19" fill="none" xmlns="http://www.w3.org/2000/svg">
<path fill-rule="evenodd" clip-rule="evenodd" d="M12.0771 12.0774C9.60712 14.5461 5.588 14.5467 3.11801 12.0774C0.648656 9.60738 0.648656 5.58826 3.11801 3.11827C5.588 0.649548 9.60712 0.649548 12.0771 3.11827C14.5465 5.58826 14.5465 9.60738 12.0771 12.0774ZM18.8145 17.9186L13.3976 12.5023C15.9234 9.51872 15.7847 5.03538 12.9727 2.22275C10.0087 -0.740601 5.1865 -0.741234 2.22252 2.22275C-0.740839 5.18674 -0.740839 10.0096 2.22252 12.9729C5.0193 15.7697 9.49442 15.9445 12.5021 13.3979L17.9183 18.8148C18.166 19.0618 18.5669 19.0618 18.8145 18.8148C19.0615 18.5671 19.0615 18.1662 18.8145 17.9186Z" fill="#393939"/>
</svg>
