<svg width="5" height="18" viewBox="0 0 5 18" fill="none" xmlns="http://www.w3.org/2000/svg">
<path d="M4.19998 16.2C4.19998 15.2059 3.39409 14.4 2.39998 14.4C1.40586 14.4 0.599975 15.2059 0.599976 16.2C0.599976 17.1941 1.40586 18 2.39998 18C3.39409 18 4.19998 17.1941 4.19998 16.2Z" fill="#182B73"/>
<path d="M4.19998 9.00002C4.19998 8.00591 3.39409 7.20002 2.39998 7.20002C1.40586 7.20002 0.599975 8.00591 0.599976 9.00002C0.599976 9.99413 1.40586 10.8 2.39998 10.8C3.39409 10.8 4.19998 9.99413 4.19998 9.00002Z" fill="#182B73"/>
<path d="M4.19998 1.80004C4.19998 0.805924 3.39409 3.63559e-05 2.39998 3.63994e-05C1.40586 3.64428e-05 0.599975 0.805924 0.599976 1.80004C0.599976 2.79415 1.40586 3.60004 2.39998 3.60004C3.39409 3.60004 4.19998 2.79415 4.19998 1.80004Z" fill="#182B73"/>
</svg>
