<svg width="48" height="49" viewBox="0 0 48 49" fill="none" xmlns="http://www.w3.org/2000/svg">
<rect y="0.483276" width="47.7555" height="47.7555" rx="7.02287" fill="#E0F4F8"/>
<path fill-rule="evenodd" clip-rule="evenodd" d="M28.5435 22.7587C30.6767 22.7587 32.4061 21.0294 32.4061 18.8961C32.4061 16.7629 30.6767 15.0335 28.5435 15.0335C26.4102 15.0335 24.6809 16.7629 24.6809 18.8961C24.6809 19.874 25.0442 20.7669 25.6433 21.4474C25.6997 22.0653 25.6325 22.5918 25.1788 22.8656C24.4911 23.2806 23.566 23.1415 22.7891 22.8637C22.2132 21.4544 20.8286 20.4614 19.2121 20.4614C17.0788 20.4614 15.3495 22.1907 15.3495 24.324C15.3495 26.4572 17.0788 28.1866 19.2121 28.1866C20.9329 28.1866 22.3909 27.0612 22.8903 25.5063C24.5644 25.2117 25.3592 26.0893 25.6817 27.232C25.0598 27.9176 24.6809 28.8276 24.6809 29.8262C24.6809 31.9594 26.4102 33.6887 28.5435 33.6887C30.6767 33.6887 32.4061 31.9594 32.4061 29.8262C32.4061 27.6929 30.6767 25.9636 28.5435 25.9636C28.2331 25.9636 27.9312 26.0002 27.642 26.0693C27.5124 25.9149 27.3769 25.7482 27.2357 25.5682C26.3663 24.4609 26.8673 23.4386 27.6651 22.6584C27.9473 22.724 28.2413 22.7587 28.5435 22.7587Z" fill="#43B8D5"/>
</svg>
