<svg width="48" height="49" viewBox="0 0 48 49" fill="none" xmlns="http://www.w3.org/2000/svg">
<rect y="0.822876" width="47.7555" height="47.7555" rx="7.02287" fill="#FFF3F1"/>
<path d="M29.8803 24.5609C29.4561 24.0123 28.816 23.6355 27.96 23.4308C29.05 22.8747 29.5291 21.931 29.3976 20.5994C29.3536 20.1166 29.2202 19.6981 28.9969 19.3434C28.7735 18.9886 28.4721 18.7034 28.0914 18.4876C27.7111 18.2716 27.2974 18.1071 26.8514 17.9937C26.4052 17.8803 25.893 17.798 25.3151 17.7468V14.9815H23.6253V17.67C23.3327 17.67 22.8865 17.6773 22.2867 17.692V14.9815H20.5967V17.7468C20.3552 17.7542 20.0005 17.7579 19.5323 17.7579L17.206 17.7468V19.5465H18.424C18.98 19.5465 19.3055 19.7953 19.4006 20.2927V23.4421C19.4738 23.4421 19.5323 23.4459 19.5762 23.4532H19.4006V27.8643C19.3421 28.2373 19.13 28.424 18.7642 28.424H17.5463L17.2061 30.4322H19.4008C19.5398 30.4322 19.7408 30.434 20.0043 30.4373C20.2676 30.441 20.4651 30.4428 20.5968 30.4428V33.241H22.287V30.4757C22.5942 30.4832 23.0404 30.4868 23.6257 30.4868V33.241H25.3155V30.4428C25.9155 30.4136 26.4476 30.3591 26.912 30.2783C27.3765 30.1976 27.8211 30.0716 28.2453 29.8995C28.6694 29.7277 29.0242 29.5136 29.3094 29.2576C29.5949 29.0017 29.8306 28.676 30.0175 28.2809C30.2037 27.8858 30.3227 27.4286 30.3738 26.9091C30.4693 25.8925 30.3046 25.1096 29.8803 24.5609ZM22.3195 19.6669C22.3708 19.6669 22.5153 19.665 22.753 19.6614C22.9909 19.6576 23.1883 19.654 23.3456 19.6503C23.5029 19.6467 23.7151 19.6558 23.9822 19.6778C24.2492 19.6997 24.4741 19.729 24.657 19.7656C24.8398 19.8021 25.0412 19.8624 25.2604 19.9466C25.4801 20.0306 25.6555 20.1331 25.7871 20.2538C25.9188 20.3745 26.0304 20.5282 26.1217 20.7147C26.2132 20.9013 26.259 21.1152 26.259 21.3566C26.259 21.5615 26.2261 21.7481 26.1603 21.9164C26.0947 22.0846 25.9957 22.2255 25.8642 22.3389C25.7326 22.4523 25.597 22.5511 25.458 22.6352C25.3191 22.7193 25.1415 22.787 24.9258 22.8381C24.7101 22.8894 24.5217 22.9296 24.3609 22.9588C24.1999 22.9881 23.9988 23.0083 23.7574 23.0192C23.5159 23.0301 23.3329 23.0376 23.2086 23.0412C23.0842 23.0448 22.9142 23.0448 22.6983 23.0412C22.4824 23.0376 22.3563 23.0357 22.3197 23.0357V19.6669H22.3195V19.6669ZM26.934 27.1396C26.8643 27.308 26.7749 27.4544 26.6652 27.5788C26.5554 27.703 26.4108 27.8128 26.2317 27.9078C26.0526 28.003 25.8786 28.0797 25.7105 28.1383C25.5422 28.197 25.3391 28.2479 25.1016 28.292C24.8635 28.3359 24.6551 28.3668 24.4757 28.3852C24.2966 28.4036 24.0827 28.4181 23.8339 28.4292C23.5852 28.44 23.3913 28.4455 23.2523 28.4455C23.1133 28.4455 22.9377 28.4435 22.7255 28.44C22.5133 28.4365 22.378 28.4347 22.3195 28.4347V24.7256C22.3779 24.7256 22.5517 24.722 22.8407 24.7145C23.1298 24.7071 23.3656 24.7037 23.5485 24.7037C23.7314 24.7037 23.9838 24.7145 24.3059 24.7366C24.6276 24.7584 24.8982 24.7912 25.1179 24.8351C25.3373 24.8791 25.5767 24.9466 25.8366 25.0382C26.0962 25.1296 26.3067 25.2411 26.4677 25.3728C26.6286 25.5047 26.7639 25.6727 26.8736 25.8776C26.9835 26.0824 27.0384 26.3165 27.0384 26.58C27.0383 26.785 27.0036 26.9713 26.934 27.1396Z" fill="#FD8A75"/>
</svg>
