<svg width="48" height="49" viewBox="0 0 48 49" fill="none" xmlns="http://www.w3.org/2000/svg">
<rect y="0.653076" width="47.7555" height="47.7555" rx="7.02287" fill="#FCF6DD"/>
<path d="M16.6191 33.3797V15.682H22.0548C25.173 15.682 27.4652 16.4742 28.9316 18.0585C30.4148 19.6429 31.1565 21.8172 31.1565 24.5814C31.1565 27.295 30.4148 29.444 28.9316 31.0284C27.4652 32.5959 25.173 33.3797 22.0548 33.3797H16.6191ZM18.7428 31.6099H22.0043C23.7235 31.6099 25.0887 31.3318 26.1 30.7756C27.1281 30.2025 27.8613 29.3935 28.2996 28.3485C28.7378 27.2866 28.9569 26.0309 28.9569 24.5814C28.9569 23.0982 28.7378 21.8256 28.2996 20.7638C27.8613 19.7019 27.1281 18.8844 26.1 18.3114C25.0887 17.7383 23.7235 17.4518 22.0043 17.4518H18.7428V31.6099Z" fill="#EAC52D"/>
<rect x="14.748" y="21.6432" width="18.2595" height="1.75572" fill="#EAC52D"/>
<rect x="14.748" y="25.2657" width="18.2595" height="1.75572" fill="#EAC52D"/>
<path d="M16.6191 33.3797V15.682H22.0548C25.173 15.682 27.4652 16.4742 28.9316 18.0585C30.4148 19.6429 31.1565 21.8172 31.1565 24.5814C31.1565 27.295 30.4148 29.444 28.9316 31.0284C27.4652 32.5959 25.173 33.3797 22.0548 33.3797H16.6191ZM18.7428 31.6099H22.0043C23.7235 31.6099 25.0887 31.3318 26.1 30.7756C27.1281 30.2025 27.8613 29.3935 28.2996 28.3485C28.7378 27.2866 28.9569 26.0309 28.9569 24.5814C28.9569 23.0982 28.7378 21.8256 28.2996 20.7638C27.8613 19.7019 27.1281 18.8844 26.1 18.3114C25.0887 17.7383 23.7235 17.4518 22.0043 17.4518H18.7428V31.6099Z" fill="#EAC52D"/>
<rect x="14.748" y="21.6432" width="18.2595" height="1.75572" fill="#EAC52D"/>
<rect x="14.748" y="25.2657" width="18.2595" height="1.75572" fill="#EAC52D"/>
</svg>
