<svg width="94" height="94" viewBox="0 0 94 94" fill="none" xmlns="http://www.w3.org/2000/svg">
<g filter="url(#filter0_d_0_63)">
<rect x="27" y="25" width="40" height="40" rx="10" fill="white"/>
</g>
<path d="M40.9163 51.9847L44.7501 51.2179C45.0466 51.1586 45.3189 51.0129 45.5327 50.7991L51.6993 44.6325L47.3674 40.3006L41.2008 46.4672C40.987 46.681 40.8413 46.9533 40.782 47.2498L40.0152 51.0836C39.9081 51.6194 40.3805 52.0919 40.9163 51.9847Z" fill="#1379FF"/>
<path d="M53.3272 39.7558L52.2442 38.6728C51.3471 37.7756 49.8925 37.7756 48.9953 38.6728L47.3675 40.3006L51.6994 44.6325L53.3272 43.0047C54.2244 42.1075 54.2244 40.6529 53.3272 39.7558Z" fill="#1379FF"/>
<defs>
<filter id="filter0_d_0_63" x="0" y="0" width="94" height="94" filterUnits="userSpaceOnUse" color-interpolation-filters="sRGB">
<feFlood flood-opacity="0" result="BackgroundImageFix"/>
<feColorMatrix in="SourceAlpha" type="matrix" values="0 0 0 0 0 0 0 0 0 0 0 0 0 0 0 0 0 0 127 0" result="hardAlpha"/>
<feOffset dy="2"/>
<feGaussianBlur stdDeviation="13.5"/>
<feColorMatrix type="matrix" values="0 0 0 0 0 0 0 0 0 0 0 0 0 0 0 0 0 0 0.06 0"/>
<feBlend mode="normal" in2="BackgroundImageFix" result="effect1_dropShadow_0_63"/>
<feBlend mode="normal" in="SourceGraphic" in2="effect1_dropShadow_0_63" result="shape"/>
</filter>
</defs>
</svg>
