<svg width="41" height="41" viewBox="0 0 41 41" fill="none" xmlns="http://www.w3.org/2000/svg">
<rect width="41" height="41" rx="10" fill="#F7F7F9"/>
<path d="M21 16.5C20.3078 16.5 19.6311 16.7053 19.0555 17.0899C18.4799 17.4744 18.0313 18.0211 17.7664 18.6606C17.5015 19.3001 17.4322 20.0039 17.5673 20.6828C17.7023 21.3618 18.0356 21.9854 18.5251 22.4749C19.0146 22.9644 19.6383 23.2977 20.3172 23.4327C20.9961 23.5678 21.6999 23.4985 22.3394 23.2336C22.9789 22.9687 23.5256 22.5201 23.9101 21.9445C24.2947 21.3689 24.5 20.6922 24.5 20C24.5 19.0717 24.1313 18.1815 23.4749 17.5251C22.8185 16.8687 21.9283 16.5 21 16.5ZM21 22C20.6044 22 20.2178 21.8827 19.8889 21.6629C19.56 21.4432 19.3036 21.1308 19.1522 20.7654C19.0009 20.3999 18.9613 19.9978 19.0384 19.6098C19.1156 19.2219 19.3061 18.8655 19.5858 18.5858C19.8655 18.3061 20.2219 18.1156 20.6098 18.0384C20.9978 17.9613 21.3999 18.0009 21.7654 18.1522C22.1308 18.3036 22.4432 18.56 22.6629 18.8889C22.8827 19.2178 23 19.6044 23 20C23 20.5304 22.7893 21.0391 22.4142 21.4142C22.0391 21.7893 21.5304 22 21 22Z" fill="#6F767E"/>
<path d="M30.992 18.5C30.4943 18.4511 30.0191 18.268 29.6174 17.9701C29.2156 17.6723 28.9023 17.2709 28.7109 16.8088C28.5195 16.3468 28.4572 15.8414 28.5307 15.3467C28.6042 14.852 28.8106 14.3865 29.128 14L29.14 13.985L28.07 12.93L27.01 11.87H27.005C26.5178 12.2758 25.9041 12.4987 25.27 12.5C24.5825 12.5028 23.9188 12.249 23.4085 11.7883C22.8983 11.3276 22.5782 10.6932 22.511 10.009V10H19.5V10.008C19.4332 10.6926 19.1132 11.3276 18.6027 11.7886C18.0921 12.2495 17.4278 12.5032 16.74 12.5C16.1045 12.5003 15.4889 12.2781 15 11.872L14.99 11.86L13.93 12.93L12.87 13.99L12.881 14C13.1984 14.3866 13.4049 14.8521 13.4783 15.3469C13.5517 15.8417 13.4893 16.3471 13.2978 16.8092C13.1063 17.2713 12.7928 17.6727 12.391 17.9705C11.9891 18.2683 11.5138 18.4513 11.016 18.5H11V21.51H11.009C11.505 21.5599 11.9783 21.7432 12.3786 22.0404C12.7788 22.3376 13.0912 22.7376 13.2824 23.198C13.4736 23.6584 13.5367 24.162 13.4647 24.6554C13.3928 25.1487 13.1887 25.6133 12.874 26V26.005L13.934 27.065L14.994 28.135L15 28.128C15.4888 27.7218 16.1044 27.4996 16.74 27.5C17.4278 27.4967 18.0921 27.7505 18.6027 28.2114C19.1132 28.6724 19.4332 29.3074 19.5 29.992V30H22.51V29.991C22.577 29.3066 22.8971 28.6718 23.4077 28.2111C23.9182 27.7503 24.5823 27.4967 25.27 27.5C25.9037 27.5006 26.5173 27.7223 27.005 28.127H27.01L28.07 27.067L29.14 26.007C28.8235 25.6207 28.6177 25.1559 28.5445 24.6619C28.4713 24.1679 28.5335 23.6634 28.7243 23.2019C28.9152 22.7405 29.2276 22.3394 29.6284 22.0415C30.0291 21.7436 30.5031 21.5599 31 21.51V18.5H30.992ZM29.5 20.382C28.5218 20.8303 27.7492 21.6319 27.3373 22.626C26.9254 23.6201 26.9046 24.7332 27.279 25.742L27.01 26.009L26.752 26.267C26.2782 26.0891 25.7761 25.9986 25.27 26C24.4493 25.9971 23.6452 26.2315 22.9547 26.6751C22.2642 27.1186 21.7166 27.7524 21.378 28.5H20.633C20.294 27.7525 19.7462 27.1188 19.0556 26.6753C18.3649 26.2318 17.5608 25.9973 16.74 26C16.2312 25.999 15.7266 26.0912 15.251 26.272L14.99 26.009L14.728 25.747C15.1045 24.7365 15.0839 23.6209 14.6705 22.6249C14.257 21.629 13.4814 20.8268 12.5 20.38V19.634C13.4861 19.188 14.2654 18.3834 14.6798 17.3836C15.0942 16.3838 15.1125 15.2638 14.731 14.251L15 13.986L15.255 13.728C15.7294 13.908 16.2326 14.0001 16.74 14C17.5607 14.0028 18.3647 13.7683 19.0552 13.3248C19.7457 12.8812 20.2933 12.2475 20.632 11.5H21.377C21.7159 12.2476 22.2637 12.8813 22.9543 13.3249C23.645 13.7684 24.4492 14.0029 25.27 14C25.7758 14.001 26.2776 13.9102 26.751 13.732L27.014 14L27.275 14.259C26.8974 15.2696 26.917 16.3859 27.3299 17.3826C27.7428 18.3794 28.5183 19.1825 29.5 19.63V20.382Z" fill="#6F767E"/>
</svg>
