<svg width="51" height="51" viewBox="0 0 51 51" fill="none" xmlns="http://www.w3.org/2000/svg">
<rect opacity="0.1" width="51" height="51" rx="10" fill="#1A55AF"/>
<path d="M35.3144 16.2702L26.6071 12.5385C26.4538 12.4729 26.2887 12.439 26.1219 12.439C25.9552 12.439 25.7901 12.4729 25.6368 12.5385L16.9295 16.2702C16.7047 16.3654 16.5128 16.5247 16.3779 16.7282C16.243 16.9317 16.1709 17.1704 16.1707 17.4146V19.9708C16.1671 23.0759 16.8929 26.1385 18.2895 28.9118C19.686 31.6851 21.7145 34.0916 24.2113 35.9375C24.2984 36.0022 24.3892 36.0619 24.4775 36.1279C25.0087 36.5085 25.5535 36.8742 26.1219 37.1989C26.6904 36.8717 27.2352 36.5085 27.7664 36.1279C27.8547 36.0644 27.9443 36.0035 28.0326 35.9375C30.5294 34.0916 32.5579 31.6851 33.9544 28.9118C35.351 26.1385 36.0768 23.0759 36.0732 19.9708V17.4146C36.073 17.1704 36.0009 16.9317 35.866 16.7282C35.7311 16.5247 35.5392 16.3654 35.3144 16.2702ZM34.2073 19.9708C34.2026 22.5069 33.6643 25.0136 32.6275 27.3281C31.5907 29.6426 30.0786 31.7131 28.1893 33.405C27.9754 33.599 27.7539 33.7781 27.53 33.966C27.3994 34.0717 27.2701 34.1799 27.1357 34.2832C26.8073 34.5319 26.4727 34.7807 26.1207 35.0096C25.7687 34.7795 25.4341 34.5344 25.1057 34.2832C24.9713 34.1799 24.8432 34.0717 24.7114 33.966C24.4875 33.7831 24.266 33.5928 24.0521 33.405C22.1633 31.7128 20.6516 29.6423 19.6152 27.3278C18.5789 25.0133 18.041 22.5067 18.0366 19.9708V17.8251L26.1219 14.3546L34.2073 17.8251V19.9708Z" fill="#1A55AF"/>
<path d="M21.2086 19.2991C21.0978 19.3483 21.0036 19.4285 20.9374 19.53C20.8712 19.6316 20.8358 19.7501 20.8354 19.8713V21.1525C20.8304 22.8396 21.1864 24.5083 21.8794 26.0466C22.5723 27.5849 23.5863 28.9571 24.8532 30.0713L24.99 30.1708C25.2541 30.3634 25.5281 30.5419 25.811 30.7057V17.3835C25.726 17.3868 25.642 17.4036 25.5622 17.4332L21.2086 19.2991Z" fill="#1A55AF"/>
</svg>
