<svg width="281" height="67" viewBox="0 0 281 67" fill="none" xmlns="http://www.w3.org/2000/svg">
<circle cx="265" cy="16" r="16" fill="#F9896B"/>
<path d="M264.898 19.5625C264.898 19.7135 264.891 19.9479 264.875 20.2656C264.859 20.5781 264.852 20.8125 264.852 20.9688C264.852 21.0833 264.766 21.1406 264.594 21.1406C264.651 21.1406 264.404 21.1198 263.852 21.0781C263.305 21.0365 262.49 21.0156 261.406 21.0156C261.036 21.0156 260.477 21.0234 259.727 21.0391C258.982 21.0547 258.422 21.0625 258.047 21.0625C257.927 21.0625 257.852 21.0104 257.82 20.9062L257.617 19.7812C257.617 19.7188 257.799 19.6562 258.164 19.5938C258.57 19.5208 258.826 19.4401 258.93 19.3516C259.654 18.7214 260.365 17.9766 261.062 17.1172C261.964 15.9974 262.414 15.1484 262.414 14.5703C262.414 14.0964 262.221 13.7057 261.836 13.3984C261.477 13.112 261.057 12.9688 260.578 12.9688C260.115 12.9688 259.651 13.0599 259.188 13.2422C258.87 13.3672 258.552 13.5339 258.234 13.7422C257.964 13.9245 257.828 14.0156 257.828 14.0156C257.786 14.0156 257.758 14.013 257.742 14.0078C257.69 13.9818 257.659 13.8906 257.648 13.7344C257.643 13.6094 257.628 13.4297 257.602 13.1953C257.492 12.7214 257.438 12.5286 257.438 12.6172C257.438 12.5755 257.477 12.526 257.555 12.4688C257.971 12.151 258.508 11.8906 259.164 11.6875C259.794 11.4948 260.388 11.3984 260.945 11.3984C261.904 11.3984 262.693 11.6224 263.312 12.0703C264.016 12.5755 264.367 13.2917 264.367 14.2188C264.367 15.2292 263.451 16.6458 261.617 18.4688C261.414 18.7083 261.094 19.0495 260.656 19.4922C260.792 19.5026 260.961 19.5078 261.164 19.5078C262.185 19.5078 263.354 19.4453 264.672 19.3203L264.734 19.3125C264.844 19.3125 264.898 19.3958 264.898 19.5625ZM272.242 18.3281C272.242 19.2865 271.883 20.0182 271.164 20.5234C270.534 20.9714 269.721 21.1953 268.727 21.1953C267.544 21.1953 266.477 20.9766 265.523 20.5391C265.424 20.4922 265.375 20.4453 265.375 20.3984C265.375 20.4141 265.5 20.0078 265.75 19.1797C265.781 19.0651 265.828 19.0078 265.891 19.0078C266.818 19.4818 267.581 19.7188 268.18 19.7188C269.602 19.7188 270.312 19.2031 270.312 18.1719C270.312 17.5312 270.068 17.0859 269.578 16.8359C269.229 16.6536 268.706 16.5625 268.008 16.5625C267.862 16.5625 267.659 16.5677 267.398 16.5781C267.138 16.5885 266.953 16.5938 266.844 16.5938C266.542 16.5938 266.391 16.5312 266.391 16.4062C266.391 15.6979 266.469 15.3438 266.625 15.3438C266.854 15.3438 267.198 15.3698 267.656 15.4219C268.12 15.474 268.466 15.5 268.695 15.5C269.039 15.5 269.318 15.3854 269.531 15.1562C269.75 14.9271 269.859 14.6406 269.859 14.2969C269.859 13.3385 269.237 12.8594 267.992 12.8594C267.263 12.8594 266.607 13.013 266.023 13.3203C266.003 13.3307 265.977 13.3359 265.945 13.3359C265.815 13.3359 265.75 12.9479 265.75 12.1719C265.75 11.9115 266.169 11.7083 267.008 11.5625C267.586 11.4635 268.109 11.4141 268.578 11.4141C269.448 11.4141 270.19 11.6042 270.805 11.9844C271.539 12.4323 271.906 13.0651 271.906 13.8828C271.906 14.3047 271.792 14.7266 271.562 15.1484C271.312 15.5964 271.003 15.8984 270.633 16.0547C271.706 16.4141 272.242 17.1719 272.242 18.3281Z" fill="white"/>
<path d="M10.804 54.67V34.69H11.174V44.495H25.382V34.69H25.752V54.67H25.382V44.865H11.174V54.67H10.804ZM13.875 58C14.3437 58 14.6767 57.9013 14.874 57.704C15.096 57.482 15.207 57.1367 15.207 56.668V48.454H21.386V56.668C21.386 57.1367 21.4847 57.482 21.682 57.704C21.904 57.9013 22.2493 58 22.718 58H28.453C28.9217 58 29.2547 57.9013 29.452 57.704C29.674 57.482 29.785 57.1367 29.785 56.668V32.692C29.785 32.2233 29.674 31.8903 29.452 31.693C29.2547 31.471 28.9217 31.36 28.453 31.36H22.718C22.2493 31.36 21.904 31.471 21.682 31.693C21.4847 31.8903 21.386 32.2233 21.386 32.692V40.721H15.207V32.692C15.207 32.2233 15.096 31.8903 14.874 31.693C14.6767 31.471 14.3437 31.36 13.875 31.36H8.14C7.67133 31.36 7.326 31.471 7.104 31.693C6.90667 31.8903 6.808 32.2233 6.808 32.692V56.668C6.808 57.1367 6.90667 57.482 7.104 57.704C7.326 57.9013 7.67133 58 8.14 58H13.875ZM15.059 58.037L10.249 62.033C10.1503 62.1317 9.99 62.218 9.768 62.292C9.57067 62.366 9.34867 62.403 9.102 62.403H3.367C2.775 62.403 2.34333 62.2673 2.072 61.996C1.80067 61.7247 1.665 61.293 1.665 60.701V36.725C1.665 36.4043 1.702 36.133 1.776 35.911C1.87467 35.689 2.01033 35.504 2.183 35.356L6.956 31.323C7.07933 31.2243 7.23967 31.1503 7.437 31.101C7.659 31.027 7.89333 30.99 8.14 30.99H13.875C14.467 30.99 14.8987 31.1257 15.17 31.397C15.4413 31.6683 15.577 32.1 15.577 32.692V40.351H16.243V36.725C16.243 36.4043 16.28 36.133 16.354 35.911C16.4527 35.689 16.5883 35.504 16.761 35.356L21.534 31.323C21.6573 31.2243 21.8177 31.1503 22.015 31.101C22.237 31.027 22.4713 30.99 22.718 30.99H28.453C29.045 30.99 29.4767 31.1257 29.748 31.397C30.0193 31.6683 30.155 32.1 30.155 32.692V56.668C30.155 56.9887 30.1057 57.26 30.007 57.482C29.933 57.704 29.8097 57.889 29.637 58.037L24.827 62.033C24.7283 62.1317 24.568 62.218 24.346 62.292C24.1487 62.366 23.9267 62.403 23.68 62.403H17.945C17.353 62.403 16.9213 62.2673 16.65 61.996C16.3787 61.7247 16.243 61.293 16.243 60.701V52.857H15.577V56.668C15.577 56.9887 15.5277 57.26 15.429 57.482C15.355 57.704 15.2317 57.889 15.059 58.037ZM50.3339 62.403H34.5719C33.9799 62.403 33.5482 62.2673 33.2769 61.996C33.0055 61.7247 32.8699 61.293 32.8699 60.701V56.298C32.8699 55.9773 32.9069 55.706 32.9809 55.484C33.0795 55.262 33.2152 55.077 33.3879 54.929L37.8649 51.155V42.904H34.5719C33.9799 42.904 33.5482 42.7683 33.2769 42.497C33.0055 42.2257 32.8699 41.794 32.8699 41.202V36.725C32.8699 36.4043 32.9069 36.133 32.9809 35.911C33.0795 35.689 33.2152 35.504 33.3879 35.356L38.1609 31.323C38.2842 31.2243 38.4445 31.1503 38.6419 31.101C38.8639 31.027 39.0982 30.99 39.3449 30.99H55.1069C55.6989 30.99 56.1305 31.1257 56.4019 31.397C56.6732 31.6683 56.8089 32.1 56.8089 32.692V37.169C56.8089 37.4897 56.7595 37.761 56.6609 37.983C56.5869 38.205 56.4635 38.39 56.2909 38.538L51.8879 42.238V50.563H55.1069C55.6989 50.563 56.1305 50.6987 56.4019 50.97C56.6732 51.2413 56.8089 51.673 56.8089 52.265V56.668C56.8089 56.9887 56.7595 57.26 56.6609 57.482C56.5869 57.704 56.4635 57.889 56.2909 58.037L51.4809 62.033C51.3822 62.1317 51.2219 62.218 50.9999 62.292C50.8025 62.366 50.5805 62.403 50.3339 62.403ZM39.3449 58H55.1069C55.5755 58 55.9085 57.9013 56.1059 57.704C56.3279 57.482 56.4389 57.1367 56.4389 56.668V52.265C56.4389 51.7963 56.3279 51.4633 56.1059 51.266C55.9085 51.044 55.5755 50.933 55.1069 50.933H51.5179V38.501H55.1069C55.5755 38.501 55.9085 38.4023 56.1059 38.205C56.3279 37.983 56.4389 37.6377 56.4389 37.169V32.692C56.4389 32.2233 56.3279 31.8903 56.1059 31.693C55.9085 31.471 55.5755 31.36 55.1069 31.36H39.3449C38.8762 31.36 38.5309 31.471 38.3089 31.693C38.1115 31.8903 38.0129 32.2233 38.0129 32.692V37.169C38.0129 37.6377 38.1115 37.983 38.3089 38.205C38.5309 38.4023 38.8762 38.501 39.3449 38.501H43.0079V50.933H39.3449C38.8762 50.933 38.5309 51.044 38.3089 51.266C38.1115 51.4633 38.0129 51.7963 38.0129 52.265V56.668C38.0129 57.1367 38.1115 57.482 38.3089 57.704C38.5309 57.9013 38.8762 58 39.3449 58ZM53.1089 54.67H41.3429V54.3H47.0779V35.06H41.3429V34.69H53.1089V35.06H47.4479V54.3H53.1089V54.67Z" fill="#393939"/>
<path d="M62.24 65.884C61.664 65.884 61.244 65.752 60.98 65.488C60.716 65.248 60.584 64.828 60.584 64.228V62.788C60.584 62.476 60.62 62.212 60.692 61.996C60.788 61.78 60.92 61.6 61.088 61.456L62.456 60.304H61.772C61.196 60.304 60.776 60.172 60.512 59.908C60.248 59.644 60.116 59.224 60.116 58.648V53.32C60.116 53.008 60.152 52.744 60.224 52.528C60.32 52.312 60.452 52.132 60.62 51.988L65.264 48.064C65.384 47.968 65.54 47.896 65.732 47.848C65.948 47.776 66.176 47.74 66.416 47.74H73.688C74.264 47.74 74.684 47.872 74.948 48.136C75.212 48.4 75.344 48.82 75.344 49.396V56.164C75.344 57.22 75.176 58.12 74.84 58.864C74.528 59.632 74.096 60.256 73.544 60.736L68.864 64.66C68.408 65.044 67.844 65.344 67.172 65.56C66.524 65.776 65.804 65.884 65.012 65.884H62.24ZM69.656 61.6C71.264 61.6 72.548 61.144 73.508 60.232C74.492 59.344 74.984 57.988 74.984 56.164V49.396C74.984 48.94 74.876 48.616 74.66 48.424C74.468 48.208 74.144 48.1 73.688 48.1H66.416C65.96 48.1 65.624 48.208 65.408 48.424C65.216 48.616 65.12 48.94 65.12 49.396V54.724C65.12 55.18 65.216 55.516 65.408 55.732C65.624 55.924 65.96 56.02 66.416 56.02H70.34V56.56C70.34 56.872 70.256 57.124 70.088 57.316C69.92 57.484 69.68 57.568 69.368 57.568H66.884C66.428 57.568 66.092 57.676 65.876 57.892C65.684 58.084 65.588 58.408 65.588 58.864V60.304C65.588 60.76 65.684 61.084 65.876 61.276C66.092 61.492 66.428 61.6 66.884 61.6H69.656ZM72.464 51.88V56.164C72.464 57.268 72.176 58.084 71.6 58.612C71.024 59.164 70.256 59.44 69.296 59.44H67.64V59.08H69.296C70.16 59.08 70.844 58.828 71.348 58.324C71.852 57.844 72.104 57.124 72.104 56.164V52.24H67.64V51.88H72.464ZM101.817 60.376C101.074 61 100.126 61.468 98.9735 61.78C97.8215 62.116 96.4655 62.284 94.9055 62.284H82.7735C82.1975 62.284 81.7775 62.152 81.5135 61.888C81.2495 61.624 81.1175 61.204 81.1175 60.628V37.3C81.1175 36.988 81.1535 36.724 81.2255 36.508C81.3215 36.292 81.4535 36.112 81.6215 35.968L86.2655 32.044C86.3855 31.948 86.5415 31.876 86.7335 31.828C86.9495 31.756 87.1775 31.72 87.4175 31.72H99.5495C102.694 31.72 105.01 32.356 106.498 33.628C108.01 34.9 108.766 36.832 108.766 39.424V50.656C108.766 51.952 108.574 53.092 108.19 54.076C107.806 55.036 107.242 55.84 106.498 56.488L101.817 60.376ZM99.5495 58C102.55 58 104.77 57.4 106.21 56.2C107.674 55 108.406 53.152 108.406 50.656V39.424C108.406 36.928 107.674 35.08 106.21 33.88C104.77 32.68 102.55 32.08 99.5495 32.08H87.4175C86.9615 32.08 86.6255 32.188 86.4095 32.404C86.2175 32.596 86.1215 32.92 86.1215 33.376V56.704C86.1215 57.16 86.2175 57.496 86.4095 57.712C86.6255 57.904 86.9615 58 87.4175 58H99.5495ZM90.0455 54.76V35.32H98.7575C99.9815 35.32 100.966 35.452 101.71 35.716C102.478 35.98 103.066 36.34 103.473 36.796C103.882 37.228 104.158 37.756 104.301 38.38C104.446 38.98 104.518 39.628 104.518 40.324V49.864C104.518 50.56 104.446 51.208 104.301 51.808C104.181 52.408 103.918 52.924 103.51 53.356C103.102 53.788 102.514 54.136 101.746 54.4C100.978 54.64 99.9815 54.76 98.7575 54.76H90.0455ZM98.7575 35.68H90.4055V54.4H98.7575C99.9095 54.4 100.834 54.292 101.53 54.076C102.25 53.836 102.802 53.524 103.186 53.14C103.57 52.732 103.822 52.252 103.942 51.7C104.086 51.124 104.158 50.512 104.158 49.864V40.324C104.158 39.676 104.086 39.064 103.942 38.488C103.798 37.912 103.534 37.42 103.149 37.012C102.766 36.604 102.214 36.28 101.493 36.04C100.797 35.8 99.8855 35.68 98.7575 35.68ZM94.2935 38.956H98.5775C99.1535 38.956 99.5735 39.1 99.8375 39.388C100.125 39.652 100.27 40.084 100.27 40.684V49.432C100.27 50.032 100.125 50.476 99.8375 50.764C99.5735 51.052 99.1535 51.196 98.5775 51.196H94.2935V38.956ZM95.2655 44.608C95.2655 44.296 95.2175 44.032 95.1215 43.816C95.0255 43.6 94.8695 43.444 94.6535 43.348V50.836H95.2655V44.608ZM119.483 47.092V48.208H133.523V47.092C133.523 46.444 133.463 45.844 133.343 45.292C133.247 44.74 133.115 44.224 132.947 43.744L130.463 37.876C130.199 37.252 129.923 36.736 129.635 36.328C129.347 35.896 128.867 35.68 128.195 35.68H124.667C123.947 35.68 123.443 35.896 123.155 36.328C122.867 36.736 122.603 37.24 122.363 37.84L120.059 43.744C119.891 44.224 119.747 44.74 119.627 45.292C119.531 45.844 119.483 46.444 119.483 47.092ZM125.243 39.64C125.339 39.424 125.435 39.268 125.531 39.172C125.651 39.076 125.783 39.028 125.927 39.028H126.827C126.971 39.028 127.091 39.076 127.187 39.172C127.307 39.268 127.415 39.424 127.511 39.64L129.203 45.112H123.551L125.243 39.64ZM133.523 54.76V48.568H119.483V54.76H119.123V47.092C119.123 46.42 119.171 45.808 119.267 45.256C119.387 44.68 119.543 44.128 119.735 43.6L122.039 37.696C122.303 37.024 122.603 36.46 122.939 36.004C123.275 35.548 123.851 35.32 124.667 35.32H128.195C128.987 35.32 129.539 35.548 129.851 36.004C130.187 36.46 130.499 37.036 130.787 37.732L133.271 43.6C133.463 44.128 133.607 44.68 133.703 45.256C133.823 45.808 133.883 46.42 133.883 47.092V54.76H133.523ZM123.191 56.704V51.664H129.563V56.704C129.563 57.16 129.671 57.496 129.887 57.712C130.127 57.904 130.487 58 130.967 58H136.403C136.859 58 137.183 57.904 137.375 57.712C137.591 57.496 137.699 57.16 137.699 56.704V47.2C137.699 46.48 137.579 45.652 137.339 44.716C137.123 43.78 136.775 42.688 136.295 41.44L133.163 33.268C133.019 32.86 132.791 32.56 132.479 32.368C132.191 32.176 131.819 32.08 131.363 32.08H121.679C121.199 32.08 120.803 32.176 120.491 32.368C120.203 32.56 119.987 32.86 119.843 33.268L116.711 41.44C116.231 42.688 115.871 43.78 115.631 44.716C115.415 45.652 115.307 46.48 115.307 47.2V56.704C115.307 57.16 115.403 57.496 115.595 57.712C115.811 57.904 116.147 58 116.603 58H121.895C122.351 58 122.675 57.904 122.867 57.712C123.083 57.496 123.191 57.16 123.191 56.704ZM118.367 61.924C118.271 62.02 118.115 62.104 117.899 62.176C117.707 62.248 117.491 62.284 117.251 62.284H111.959C111.383 62.284 110.963 62.152 110.699 61.888C110.435 61.624 110.303 61.204 110.303 60.628V51.124C110.303 50.38 110.411 49.54 110.627 48.604C110.867 47.644 111.239 46.516 111.743 45.22L114.839 37.084C114.911 36.868 114.995 36.688 115.091 36.544C115.211 36.376 115.331 36.232 115.451 36.112L115.487 36.076L120.095 32.224C120.287 32.056 120.515 31.936 120.779 31.864C121.043 31.768 121.343 31.72 121.679 31.72H131.363C131.915 31.72 132.359 31.84 132.695 32.08C133.055 32.296 133.319 32.644 133.487 33.124L136.619 41.296C137.123 42.592 137.483 43.72 137.699 44.68C137.939 45.616 138.059 46.456 138.059 47.2V56.704C138.059 57.016 138.011 57.28 137.915 57.496C137.843 57.712 137.723 57.892 137.555 58.036L132.875 61.924C132.779 62.02 132.623 62.104 132.407 62.176C132.215 62.248 131.999 62.284 131.759 62.284H126.323C125.723 62.284 125.279 62.14 124.991 61.852C124.703 61.588 124.559 61.18 124.559 60.628V55.948H123.551V56.704C123.551 57.016 123.503 57.28 123.407 57.496C123.335 57.712 123.215 57.892 123.047 58.036L118.367 61.924ZM149.762 35.608L163.01 50.512V35.32H163.37V54.76H163.01V51.052L149.402 35.788C149.378 35.764 149.342 35.74 149.294 35.716C149.27 35.692 149.246 35.68 149.222 35.68C149.198 35.68 149.174 35.692 149.15 35.716C149.15 35.74 149.15 35.764 149.15 35.788V54.76H148.79V35.716C148.79 35.572 148.838 35.464 148.934 35.392C149.03 35.32 149.126 35.284 149.222 35.284C149.318 35.284 149.402 35.308 149.474 35.356C149.546 35.404 149.642 35.488 149.762 35.608ZM151.706 58C152.162 58 152.486 57.904 152.678 57.712C152.894 57.496 153.002 57.16 153.002 56.704V44.824L159.158 52.276V56.704C159.158 57.16 159.254 57.496 159.446 57.712C159.662 57.904 159.998 58 160.454 58H165.854C166.31 58 166.634 57.904 166.826 57.712C167.042 57.496 167.15 57.16 167.15 56.704V33.376C167.15 32.92 167.042 32.596 166.826 32.404C166.634 32.188 166.31 32.08 165.854 32.08H160.454C159.998 32.08 159.662 32.188 159.446 32.404C159.254 32.596 159.158 32.92 159.158 33.376V41.044L152.174 33.052C151.862 32.692 151.538 32.44 151.202 32.296C150.89 32.152 150.506 32.08 150.05 32.08H146.306C145.85 32.08 145.514 32.188 145.298 32.404C145.106 32.596 145.01 32.92 145.01 33.376V56.704C145.01 57.16 145.106 57.496 145.298 57.712C145.514 57.904 145.85 58 146.306 58H151.706ZM152.858 58.036L148.178 61.924C148.082 62.02 147.926 62.104 147.71 62.176C147.518 62.248 147.302 62.284 147.062 62.284H141.662C141.086 62.284 140.666 62.152 140.402 61.888C140.138 61.624 140.006 61.204 140.006 60.628V37.3C140.006 36.988 140.042 36.724 140.114 36.508C140.21 36.292 140.342 36.112 140.51 35.968L145.154 32.044C145.274 31.948 145.43 31.876 145.622 31.828C145.838 31.756 146.066 31.72 146.306 31.72H150.05C150.578 31.72 151.022 31.804 151.382 31.972C151.742 32.14 152.102 32.416 152.462 32.8L154.946 35.68L159.302 32.044C159.422 31.948 159.578 31.876 159.77 31.828C159.986 31.756 160.214 31.72 160.454 31.72H165.854C166.43 31.72 166.85 31.852 167.114 32.116C167.378 32.38 167.51 32.8 167.51 33.376V56.704C167.51 57.016 167.462 57.28 167.366 57.496C167.294 57.712 167.174 57.892 167.006 58.036L162.326 61.924C162.23 62.02 162.074 62.104 161.858 62.176C161.666 62.248 161.45 62.284 161.21 62.284H155.81C155.234 62.284 154.814 62.152 154.55 61.888C154.286 61.624 154.154 61.204 154.154 60.628V56.344L153.362 55.372V56.704C153.362 57.016 153.314 57.28 153.218 57.496C153.146 57.712 153.026 57.892 152.858 58.036ZM186.393 62.284H171.057C170.481 62.284 170.061 62.152 169.797 61.888C169.533 61.624 169.401 61.204 169.401 60.628V56.344C169.401 56.032 169.437 55.768 169.509 55.552C169.605 55.336 169.737 55.156 169.905 55.012L174.261 51.34V43.312H171.057C170.481 43.312 170.061 43.18 169.797 42.916C169.533 42.652 169.401 42.232 169.401 41.656V37.3C169.401 36.988 169.437 36.724 169.509 36.508C169.605 36.292 169.737 36.112 169.905 35.968L174.549 32.044C174.669 31.948 174.825 31.876 175.017 31.828C175.233 31.756 175.461 31.72 175.701 31.72H191.037C191.613 31.72 192.033 31.852 192.297 32.116C192.561 32.38 192.693 32.8 192.693 33.376V37.732C192.693 38.044 192.645 38.308 192.549 38.524C192.477 38.74 192.357 38.92 192.189 39.064L187.905 42.664V50.764H191.037C191.613 50.764 192.033 50.896 192.297 51.16C192.561 51.424 192.693 51.844 192.693 52.42V56.704C192.693 57.016 192.645 57.28 192.549 57.496C192.477 57.712 192.357 57.892 192.189 58.036L187.509 61.924C187.413 62.02 187.257 62.104 187.041 62.176C186.849 62.248 186.633 62.284 186.393 62.284ZM175.701 58H191.037C191.493 58 191.817 57.904 192.009 57.712C192.225 57.496 192.333 57.16 192.333 56.704V52.42C192.333 51.964 192.225 51.64 192.009 51.448C191.817 51.232 191.493 51.124 191.037 51.124H187.545V39.028H191.037C191.493 39.028 191.817 38.932 192.009 38.74C192.225 38.524 192.333 38.188 192.333 37.732V33.376C192.333 32.92 192.225 32.596 192.009 32.404C191.817 32.188 191.493 32.08 191.037 32.08H175.701C175.245 32.08 174.909 32.188 174.693 32.404C174.501 32.596 174.405 32.92 174.405 33.376V37.732C174.405 38.188 174.501 38.524 174.693 38.74C174.909 38.932 175.245 39.028 175.701 39.028H179.265V51.124H175.701C175.245 51.124 174.909 51.232 174.693 51.448C174.501 51.64 174.405 51.964 174.405 52.42V56.704C174.405 57.16 174.501 57.496 174.693 57.712C174.909 57.904 175.245 58 175.701 58ZM189.093 54.76H177.645V54.4H183.225V35.68H177.645V35.32H189.093V35.68H183.585V54.4H189.093V54.76ZM213 62.284H196.296C195.72 62.284 195.3 62.152 195.036 61.888C194.772 61.624 194.64 61.204 194.64 60.628V37.3C194.64 36.988 194.676 36.724 194.748 36.508C194.844 36.292 194.976 36.112 195.144 35.968L199.788 32.044C199.908 31.948 200.064 31.876 200.256 31.828C200.472 31.756 200.7 31.72 200.94 31.72H217.644C218.22 31.72 218.64 31.852 218.904 32.116C219.168 32.38 219.3 32.8 219.3 33.376V37.588C219.3 37.9 219.252 38.164 219.156 38.38C219.084 38.596 218.964 38.776 218.796 38.92L215.7 41.476C215.94 41.596 216.108 41.776 216.204 42.016C216.324 42.256 216.384 42.568 216.384 42.952V46.804C216.384 47.116 216.336 47.38 216.24 47.596C216.168 47.812 216.048 47.992 215.88 48.136L212.676 50.836H217.644C218.22 50.836 218.64 50.968 218.904 51.232C219.168 51.496 219.3 51.916 219.3 52.492V56.704C219.3 57.016 219.252 57.28 219.156 57.496C219.084 57.712 218.964 57.892 218.796 58.036L214.116 61.924C214.02 62.02 213.864 62.104 213.648 62.176C213.456 62.248 213.24 62.284 213 62.284ZM217.644 58C218.1 58 218.424 57.904 218.616 57.712C218.832 57.496 218.94 57.16 218.94 56.704V52.492C218.94 52.036 218.832 51.712 218.616 51.52C218.424 51.304 218.1 51.196 217.644 51.196H207.708V48.1H214.728C215.184 48.1 215.508 48.004 215.7 47.812C215.916 47.596 216.024 47.26 216.024 46.804V42.952C216.024 42.496 215.916 42.172 215.7 41.98C215.508 41.764 215.184 41.656 214.728 41.656H207.708V38.884H217.644C218.1 38.884 218.424 38.788 218.616 38.596C218.832 38.38 218.94 38.044 218.94 37.588V33.376C218.94 32.92 218.832 32.596 218.616 32.404C218.424 32.188 218.1 32.08 217.644 32.08H200.94C200.484 32.08 200.148 32.188 199.932 32.404C199.74 32.596 199.644 32.92 199.644 33.376V56.704C199.644 57.16 199.74 57.496 199.932 57.712C200.148 57.904 200.484 58 200.94 58H217.644ZM215.7 54.4V54.76H203.568V35.32H215.7V35.68H203.928V44.716H212.784V45.076H203.928V54.4H215.7ZM241.04 62.284H222.716C222.14 62.284 221.72 62.152 221.456 61.888C221.192 61.624 221.06 61.204 221.06 60.628V37.3C221.06 36.988 221.096 36.724 221.168 36.508C221.264 36.292 221.396 36.112 221.564 35.968L226.208 32.044C226.328 31.948 226.484 31.876 226.676 31.828C226.892 31.756 227.12 31.72 227.36 31.72H232.94C233.516 31.72 233.936 31.852 234.2 32.116C234.464 32.38 234.596 32.8 234.596 33.376V48.028L234.668 47.956L239.312 44.032C239.432 43.936 239.588 43.864 239.78 43.816C239.996 43.744 240.224 43.708 240.464 43.708H245.684C246.26 43.708 246.68 43.84 246.944 44.104C247.208 44.368 247.34 44.788 247.34 45.364V56.704C247.34 57.016 247.292 57.28 247.196 57.496C247.124 57.712 247.004 57.892 246.836 58.036L242.156 61.924C242.06 62.02 241.904 62.104 241.688 62.176C241.496 62.248 241.28 62.284 241.04 62.284ZM245.684 58C246.14 58 246.464 57.904 246.656 57.712C246.872 57.496 246.98 57.16 246.98 56.704V45.364C246.98 44.908 246.872 44.584 246.656 44.392C246.464 44.176 246.14 44.068 245.684 44.068H240.464C240.008 44.068 239.672 44.176 239.456 44.392C239.264 44.584 239.168 44.908 239.168 45.364V51.196H234.236V33.376C234.236 32.92 234.128 32.596 233.912 32.404C233.72 32.188 233.396 32.08 232.94 32.08H227.36C226.904 32.08 226.568 32.188 226.352 32.404C226.16 32.596 226.064 32.92 226.064 33.376V56.704C226.064 57.16 226.16 57.496 226.352 57.712C226.568 57.904 226.904 58 227.36 58H245.684ZM229.988 54.76V35.32H230.348V54.4H242.876V47.308H243.236V54.76H229.988Z" fill="#393939"/>
</svg>
