<svg width="51" height="51" viewBox="0 0 51 51" fill="none" xmlns="http://www.w3.org/2000/svg">
<rect opacity="0.1" width="51" height="51" rx="10" fill="#FA5F1C"/>
<path d="M33.8976 21.7741C33.7562 21.5277 33.4894 21.375 33.1999 21.375H27.6695L28.3973 12.8463C28.4277 12.4893 28.2055 12.1578 27.8582 12.0422C27.5125 11.9259 27.1278 12.056 26.9285 12.357L18.1286 25.6381C17.9692 25.8784 17.9571 26.1846 18.0973 26.436C18.2376 26.6874 18.5071 26.8437 18.8 26.8437H24.3359L23.6023 36.1588C23.5738 36.5189 23.8019 36.8512 24.1539 36.9622C24.2351 36.9877 24.3179 37 24.4 37C24.6726 37 24.9343 36.8631 25.0828 36.6262L33.8827 22.5638C34.0335 22.3227 34.0394 22.0205 33.8976 21.7741ZM25.4527 33.038L25.9976 26.1225C26.0148 25.9054 25.9383 25.6914 25.7871 25.5315C25.6355 25.3721 25.4226 25.2812 25.2 25.2812H20.2707L26.5375 15.8229L26.0027 22.0915C25.9844 22.3094 26.0598 22.5244 26.2113 22.6854C26.3629 22.846 26.5761 22.9375 26.8 22.9375H31.7734L25.4527 33.038Z" fill="#FA5F1C"/>
</svg>
